<mxfile host="app.diagrams.net" agent="Mozilla/5.0 (Windows NT 10.0; Win64; x64) AppleWebKit/537.36 (KHTML, like Gecko) Chrome/130.0.0.0 Safari/537.36 Edg/130.0.0.0" version="24.8.4">
  <diagram name="Page-1" id="16e2658f-23c8-b752-8be9-c03fbebb8bbe">
    <mxGraphModel dx="1094" dy="1160" grid="1" gridSize="10" guides="1" tooltips="1" connect="1" arrows="1" fold="1" page="1" pageScale="1" pageWidth="1100" pageHeight="850" background="none" math="0" shadow="0">
      <root>
        <mxCell id="0" />
        <mxCell id="1" parent="0" />
        <mxCell id="_HQgu8TvVa0ZUjis0PXV-1" value="" style="pointerEvents=1;verticalLabelPosition=bottom;shadow=0;dashed=0;align=center;html=1;verticalAlign=top;shape=mxgraph.electrical.resistors.symmetrical_photoconductive_transducer;rotation=-90;" parent="1" vertex="1">
          <mxGeometry x="140" y="270" width="100" height="40" as="geometry" />
        </mxCell>
        <mxCell id="7a-uF8XU-NLAj2xIB6lD-1" value="&lt;h1 style=&quot;box-sizing: border-box; padding: 0px; margin-top: 0px; margin-right: 0px; margin-left: 0px; text-rendering: optimizelegibility; font-weight: 400; color: rgb(15, 17, 17); background-color: rgb(255, 255, 255); margin-bottom: 0px !important; line-height: 32px !important;&quot; class=&quot;a-size-large a-spacing-none&quot;&gt;&lt;span style=&quot;box-sizing: border-box; text-rendering: optimizelegibility; word-break: break-word; line-height: 32px !important;&quot; class=&quot;a-size-large product-title-word-break&quot; id=&quot;productTitle&quot;&gt;&lt;font style=&quot;font-size: 14px;&quot; face=&quot;Helvetica&quot;&gt;HiLetgo&lt;/font&gt;&lt;/span&gt;&lt;/h1&gt;&lt;h1 style=&quot;box-sizing: border-box; padding: 0px; margin-top: 0px; margin-right: 0px; margin-left: 0px; text-rendering: optimizelegibility; font-weight: 400; color: rgb(15, 17, 17); background-color: rgb(255, 255, 255); margin-bottom: 0px !important; line-height: 32px !important;&quot; class=&quot;a-size-large a-spacing-none&quot;&gt;&lt;span style=&quot;box-sizing: border-box; text-rendering: optimizelegibility; word-break: break-word; line-height: 32px !important;&quot; class=&quot;a-size-large product-title-word-break&quot;&gt;&lt;font style=&quot;font-size: 14px;&quot; face=&quot;Helvetica&quot;&gt;Pro Micro&lt;/font&gt;&lt;/span&gt;&lt;/h1&gt;&lt;h1 style=&quot;box-sizing: border-box; padding: 0px; margin-top: 0px; margin-right: 0px; margin-left: 0px; text-rendering: optimizelegibility; font-weight: 400; color: rgb(15, 17, 17); background-color: rgb(255, 255, 255); margin-bottom: 0px !important; line-height: 32px !important;&quot; class=&quot;a-size-large a-spacing-none&quot;&gt;&lt;span style=&quot;box-sizing: border-box; text-rendering: optimizelegibility; word-break: break-word; line-height: 32px !important;&quot; class=&quot;a-size-large product-title-word-break&quot;&gt;&lt;font style=&quot;font-size: 14px;&quot; face=&quot;Helvetica&quot;&gt;Atmega32U4 5V 16MHz&lt;/font&gt;&lt;/span&gt;&lt;/h1&gt;" style="rounded=0;whiteSpace=wrap;html=1;align=center;" parent="1" vertex="1">
          <mxGeometry x="360" y="200" width="200" height="291" as="geometry" />
        </mxCell>
        <mxCell id="7a-uF8XU-NLAj2xIB6lD-4" value="" style="verticalLabelPosition=bottom;shadow=0;dashed=0;align=center;fillColor=#000000;html=1;verticalAlign=top;strokeWidth=1;shape=mxgraph.electrical.miscellaneous.monocell_battery;rounded=1;comic=0;labelBackgroundColor=none;fontFamily=Verdana;fontSize=12;rotation=-90;" parent="1" vertex="1">
          <mxGeometry x="790" y="300" width="100" height="60" as="geometry" />
        </mxCell>
        <mxCell id="7a-uF8XU-NLAj2xIB6lD-8" value="" style="verticalLabelPosition=bottom;shadow=0;dashed=0;align=center;html=1;verticalAlign=top;shape=mxgraph.electrical.opto_electronics.led_1;pointerEvents=1;rotation=90;" parent="1" vertex="1">
          <mxGeometry x="482" y="521" width="100" height="54.38" as="geometry" />
        </mxCell>
        <mxCell id="7a-uF8XU-NLAj2xIB6lD-9" value="" style="endArrow=none;html=1;rounded=0;" parent="1" edge="1">
          <mxGeometry width="50" height="50" relative="1" as="geometry">
            <mxPoint x="562" y="240" as="sourcePoint" />
            <mxPoint x="840" y="240" as="targetPoint" />
          </mxGeometry>
        </mxCell>
        <mxCell id="7a-uF8XU-NLAj2xIB6lD-11" value="" style="endArrow=none;html=1;rounded=0;entryX=0;entryY=0.5;entryDx=0;entryDy=0;" parent="1" target="7a-uF8XU-NLAj2xIB6lD-7" edge="1">
          <mxGeometry width="50" height="50" relative="1" as="geometry">
            <mxPoint x="560" y="340" as="sourcePoint" />
            <mxPoint x="570" y="330" as="targetPoint" />
          </mxGeometry>
        </mxCell>
        <mxCell id="7a-uF8XU-NLAj2xIB6lD-13" value="" style="endArrow=none;html=1;rounded=0;" parent="1" source="7a-uF8XU-NLAj2xIB6lD-4" edge="1">
          <mxGeometry width="50" height="50" relative="1" as="geometry">
            <mxPoint x="790" y="290" as="sourcePoint" />
            <mxPoint x="840" y="240" as="targetPoint" />
          </mxGeometry>
        </mxCell>
        <mxCell id="7a-uF8XU-NLAj2xIB6lD-15" value="RAW" style="text;html=1;align=center;verticalAlign=middle;resizable=0;points=[];autosize=1;strokeColor=none;fillColor=none;" parent="1" vertex="1">
          <mxGeometry x="560" y="210" width="50" height="30" as="geometry" />
        </mxCell>
        <mxCell id="7a-uF8XU-NLAj2xIB6lD-16" value="" style="ellipse;shape=doubleEllipse;whiteSpace=wrap;html=1;aspect=fixed;" parent="1" vertex="1">
          <mxGeometry x="550" y="230" width="20" height="20" as="geometry" />
        </mxCell>
        <mxCell id="7a-uF8XU-NLAj2xIB6lD-17" value="" style="endArrow=none;html=1;rounded=0;entryX=0;entryY=0.5;entryDx=0;entryDy=0;entryPerimeter=0;" parent="1" target="7a-uF8XU-NLAj2xIB6lD-4" edge="1">
          <mxGeometry width="50" height="50" relative="1" as="geometry">
            <mxPoint x="840" y="440" as="sourcePoint" />
            <mxPoint x="859.5" y="400" as="targetPoint" />
          </mxGeometry>
        </mxCell>
        <mxCell id="7a-uF8XU-NLAj2xIB6lD-18" value="" style="endArrow=none;html=1;rounded=0;" parent="1" edge="1">
          <mxGeometry width="50" height="50" relative="1" as="geometry">
            <mxPoint x="740" y="300" as="sourcePoint" />
            <mxPoint x="740" y="240" as="targetPoint" />
          </mxGeometry>
        </mxCell>
        <mxCell id="7a-uF8XU-NLAj2xIB6lD-19" value="POWER" style="text;html=1;align=center;verticalAlign=middle;resizable=0;points=[];autosize=1;strokeColor=none;fillColor=none;" parent="1" vertex="1">
          <mxGeometry x="730" y="270" width="70" height="30" as="geometry" />
        </mxCell>
        <mxCell id="7a-uF8XU-NLAj2xIB6lD-20" value="" style="ellipse;shape=doubleEllipse;whiteSpace=wrap;html=1;aspect=fixed;" parent="1" vertex="1">
          <mxGeometry x="550" y="430" width="20" height="20" as="geometry" />
        </mxCell>
        <mxCell id="7a-uF8XU-NLAj2xIB6lD-21" value="" style="endArrow=none;html=1;rounded=0;" parent="1" edge="1">
          <mxGeometry width="50" height="50" relative="1" as="geometry">
            <mxPoint x="570" y="439.5" as="sourcePoint" />
            <mxPoint x="840" y="440" as="targetPoint" />
          </mxGeometry>
        </mxCell>
        <mxCell id="7a-uF8XU-NLAj2xIB6lD-22" value="+5V&lt;div&gt;(USB)&lt;/div&gt;" style="text;html=1;align=center;verticalAlign=middle;resizable=0;points=[];autosize=1;strokeColor=none;fillColor=none;" parent="1" vertex="1">
          <mxGeometry x="830" y="280" width="60" height="40" as="geometry" />
        </mxCell>
        <mxCell id="7a-uF8XU-NLAj2xIB6lD-23" value="" style="endArrow=none;html=1;rounded=0;" parent="1" edge="1">
          <mxGeometry width="50" height="50" relative="1" as="geometry">
            <mxPoint x="740" y="440" as="sourcePoint" />
            <mxPoint x="740" y="380" as="targetPoint" />
          </mxGeometry>
        </mxCell>
        <mxCell id="7a-uF8XU-NLAj2xIB6lD-24" value="GND" style="text;html=1;align=center;verticalAlign=middle;resizable=0;points=[];autosize=1;strokeColor=none;fillColor=none;" parent="1" vertex="1">
          <mxGeometry x="740" y="380" width="50" height="30" as="geometry" />
        </mxCell>
        <mxCell id="7a-uF8XU-NLAj2xIB6lD-25" value="" style="ellipse;shape=doubleEllipse;whiteSpace=wrap;html=1;aspect=fixed;" parent="1" vertex="1">
          <mxGeometry x="550" y="330" width="20" height="20" as="geometry" />
        </mxCell>
        <mxCell id="7a-uF8XU-NLAj2xIB6lD-7" value="HC-SR501 PIR Infrared Motion Sensor" style="ellipse;whiteSpace=wrap;html=1;aspect=fixed;" parent="1" vertex="1">
          <mxGeometry x="640" y="280" width="120" height="120" as="geometry" />
        </mxCell>
        <mxCell id="7a-uF8XU-NLAj2xIB6lD-26" value="A9 (P&lt;span style=&quot;background-color: initial;&quot;&gt;9)&lt;/span&gt;" style="text;html=1;align=center;verticalAlign=middle;resizable=0;points=[];autosize=1;strokeColor=none;fillColor=none;" parent="1" vertex="1">
          <mxGeometry x="560" y="315" width="60" height="30" as="geometry" />
        </mxCell>
        <mxCell id="7a-uF8XU-NLAj2xIB6lD-27" value="GND" style="text;html=1;align=center;verticalAlign=middle;resizable=0;points=[];autosize=1;strokeColor=none;fillColor=none;" parent="1" vertex="1">
          <mxGeometry x="560" y="410" width="50" height="30" as="geometry" />
        </mxCell>
        <mxCell id="7a-uF8XU-NLAj2xIB6lD-29" value="R1&lt;div&gt;5mm 50-100K Ohm&lt;div&gt;Photo Light Sensitive Resistor&lt;/div&gt;&lt;/div&gt;" style="text;html=1;align=center;verticalAlign=middle;resizable=0;points=[];autosize=1;strokeColor=none;fillColor=none;" parent="1" vertex="1">
          <mxGeometry x="110" y="170" width="180" height="60" as="geometry" />
        </mxCell>
        <mxCell id="7a-uF8XU-NLAj2xIB6lD-30" value="" style="pointerEvents=1;verticalLabelPosition=bottom;shadow=0;dashed=0;align=center;html=1;verticalAlign=top;shape=mxgraph.electrical.resistors.resistor_2;rotation=90;" parent="1" vertex="1">
          <mxGeometry x="630" y="480" width="100" height="20" as="geometry" />
        </mxCell>
        <mxCell id="7a-uF8XU-NLAj2xIB6lD-33" value="LED1" style="text;html=1;align=center;verticalAlign=middle;resizable=0;points=[];autosize=1;strokeColor=none;fillColor=none;" parent="1" vertex="1">
          <mxGeometry x="550" y="580" width="50" height="30" as="geometry" />
        </mxCell>
        <mxCell id="7a-uF8XU-NLAj2xIB6lD-34" value="R2&lt;div&gt;330 Ohm&lt;/div&gt;" style="text;html=1;align=center;verticalAlign=middle;resizable=0;points=[];autosize=1;strokeColor=none;fillColor=none;" parent="1" vertex="1">
          <mxGeometry x="690" y="480" width="70" height="40" as="geometry" />
        </mxCell>
        <mxCell id="7a-uF8XU-NLAj2xIB6lD-35" value="" style="endArrow=none;html=1;rounded=0;entryX=1;entryY=0.5;entryDx=0;entryDy=0;entryPerimeter=0;" parent="1" target="7a-uF8XU-NLAj2xIB6lD-30" edge="1">
          <mxGeometry width="50" height="50" relative="1" as="geometry">
            <mxPoint x="680" y="680" as="sourcePoint" />
            <mxPoint x="620" y="640" as="targetPoint" />
          </mxGeometry>
        </mxCell>
        <mxCell id="7a-uF8XU-NLAj2xIB6lD-36" value="" style="endArrow=none;html=1;rounded=0;" parent="1" edge="1">
          <mxGeometry width="50" height="50" relative="1" as="geometry">
            <mxPoint x="400" y="680" as="sourcePoint" />
            <mxPoint x="680" y="680" as="targetPoint" />
          </mxGeometry>
        </mxCell>
        <mxCell id="7a-uF8XU-NLAj2xIB6lD-37" value="" style="endArrow=none;html=1;rounded=0;" parent="1" edge="1">
          <mxGeometry width="50" height="50" relative="1" as="geometry">
            <mxPoint x="400" y="680" as="sourcePoint" />
            <mxPoint x="400" y="600" as="targetPoint" />
            <Array as="points">
              <mxPoint x="400" y="620" />
            </Array>
          </mxGeometry>
        </mxCell>
        <mxCell id="7a-uF8XU-NLAj2xIB6lD-38" value="" style="ellipse;shape=doubleEllipse;whiteSpace=wrap;html=1;aspect=fixed;" parent="1" vertex="1">
          <mxGeometry x="457" y="480" width="20" height="20" as="geometry" />
        </mxCell>
        <mxCell id="7a-uF8XU-NLAj2xIB6lD-39" value="" style="ellipse;shape=doubleEllipse;whiteSpace=wrap;html=1;aspect=fixed;" parent="1" vertex="1">
          <mxGeometry x="390" y="480" width="20" height="20" as="geometry" />
        </mxCell>
        <mxCell id="7a-uF8XU-NLAj2xIB6lD-44" value="" style="verticalLabelPosition=bottom;shadow=0;dashed=0;align=center;html=1;verticalAlign=top;shape=mxgraph.electrical.opto_electronics.led_1;pointerEvents=1;rotation=90;" parent="1" vertex="1">
          <mxGeometry x="352" y="523" width="100" height="54.38" as="geometry" />
        </mxCell>
        <mxCell id="7a-uF8XU-NLAj2xIB6lD-45" value="LED3" style="text;html=1;align=center;verticalAlign=middle;resizable=0;points=[];autosize=1;strokeColor=none;fillColor=none;" parent="1" vertex="1">
          <mxGeometry x="410" y="582.19" width="50" height="30" as="geometry" />
        </mxCell>
        <mxCell id="7a-uF8XU-NLAj2xIB6lD-47" value="" style="verticalLabelPosition=bottom;shadow=0;dashed=0;align=center;html=1;verticalAlign=top;shape=mxgraph.electrical.opto_electronics.led_1;pointerEvents=1;rotation=90;" parent="1" vertex="1">
          <mxGeometry x="417" y="522" width="100" height="54.38" as="geometry" />
        </mxCell>
        <mxCell id="7a-uF8XU-NLAj2xIB6lD-48" value="LED2" style="text;html=1;align=center;verticalAlign=middle;resizable=0;points=[];autosize=1;strokeColor=none;fillColor=none;rotation=0;" parent="1" vertex="1">
          <mxGeometry x="472" y="582.19" width="50" height="30" as="geometry" />
        </mxCell>
        <mxCell id="7a-uF8XU-NLAj2xIB6lD-40" value="" style="ellipse;shape=doubleEllipse;whiteSpace=wrap;html=1;aspect=fixed;" parent="1" vertex="1">
          <mxGeometry x="522" y="480" width="20" height="20" as="geometry" />
        </mxCell>
        <mxCell id="7a-uF8XU-NLAj2xIB6lD-53" value="P15" style="text;html=1;align=center;verticalAlign=middle;resizable=0;points=[];autosize=1;strokeColor=none;fillColor=none;" parent="1" vertex="1">
          <mxGeometry x="530" y="491" width="40" height="30" as="geometry" />
        </mxCell>
        <mxCell id="7a-uF8XU-NLAj2xIB6lD-54" value="P14" style="text;html=1;align=center;verticalAlign=middle;resizable=0;points=[];autosize=1;strokeColor=none;fillColor=none;" parent="1" vertex="1">
          <mxGeometry x="465" y="491" width="40" height="30" as="geometry" />
        </mxCell>
        <mxCell id="7a-uF8XU-NLAj2xIB6lD-56" value="P16" style="text;html=1;align=center;verticalAlign=middle;resizable=0;points=[];autosize=1;strokeColor=none;fillColor=none;" parent="1" vertex="1">
          <mxGeometry x="400" y="491" width="40" height="30" as="geometry" />
        </mxCell>
        <mxCell id="7a-uF8XU-NLAj2xIB6lD-57" value="GND" style="text;html=1;align=center;verticalAlign=middle;resizable=0;points=[];autosize=1;strokeColor=none;fillColor=none;" parent="1" vertex="1">
          <mxGeometry x="315" y="410" width="50" height="30" as="geometry" />
        </mxCell>
        <mxCell id="7a-uF8XU-NLAj2xIB6lD-59" value="" style="ellipse;shape=doubleEllipse;whiteSpace=wrap;html=1;aspect=fixed;" parent="1" vertex="1">
          <mxGeometry x="350" y="430" width="20" height="20" as="geometry" />
        </mxCell>
        <mxCell id="7a-uF8XU-NLAj2xIB6lD-60" value="" style="ellipse;shape=doubleEllipse;whiteSpace=wrap;html=1;aspect=fixed;" parent="1" vertex="1">
          <mxGeometry x="350" y="350" width="20" height="20" as="geometry" />
        </mxCell>
        <mxCell id="7a-uF8XU-NLAj2xIB6lD-61" value="" style="ellipse;shape=doubleEllipse;whiteSpace=wrap;html=1;aspect=fixed;" parent="1" vertex="1">
          <mxGeometry x="350" y="230" width="20" height="20" as="geometry" />
        </mxCell>
        <mxCell id="7a-uF8XU-NLAj2xIB6lD-62" value="" style="pointerEvents=1;verticalLabelPosition=bottom;shadow=0;dashed=0;align=center;html=1;verticalAlign=top;shape=mxgraph.electrical.resistors.resistor_2;" parent="1" vertex="1">
          <mxGeometry x="215" y="430" width="100" height="20" as="geometry" />
        </mxCell>
        <mxCell id="7a-uF8XU-NLAj2xIB6lD-63" value="" style="endArrow=none;html=1;rounded=0;exitX=1;exitY=0.5;exitDx=0;exitDy=0;exitPerimeter=0;entryX=0;entryY=0.5;entryDx=0;entryDy=0;" parent="1" source="7a-uF8XU-NLAj2xIB6lD-62" target="7a-uF8XU-NLAj2xIB6lD-59" edge="1">
          <mxGeometry width="50" height="50" relative="1" as="geometry">
            <mxPoint x="520" y="380" as="sourcePoint" />
            <mxPoint x="570" y="330" as="targetPoint" />
          </mxGeometry>
        </mxCell>
        <mxCell id="7a-uF8XU-NLAj2xIB6lD-64" value="R3&lt;div&gt;10K Ohm&lt;/div&gt;" style="text;html=1;align=center;verticalAlign=middle;resizable=0;points=[];autosize=1;strokeColor=none;fillColor=none;" parent="1" vertex="1">
          <mxGeometry x="230" y="450" width="70" height="40" as="geometry" />
        </mxCell>
        <mxCell id="7a-uF8XU-NLAj2xIB6lD-66" value="" style="endArrow=none;html=1;rounded=0;exitX=0;exitY=0.75;exitDx=0;exitDy=0;exitPerimeter=0;" parent="1" source="_HQgu8TvVa0ZUjis0PXV-1" edge="1">
          <mxGeometry width="50" height="50" relative="1" as="geometry">
            <mxPoint x="520" y="380" as="sourcePoint" />
            <mxPoint x="200" y="440" as="targetPoint" />
          </mxGeometry>
        </mxCell>
        <mxCell id="7a-uF8XU-NLAj2xIB6lD-67" value="" style="endArrow=none;html=1;rounded=0;entryX=0;entryY=0.5;entryDx=0;entryDy=0;entryPerimeter=0;" parent="1" target="7a-uF8XU-NLAj2xIB6lD-62" edge="1">
          <mxGeometry width="50" height="50" relative="1" as="geometry">
            <mxPoint x="200" y="440" as="sourcePoint" />
            <mxPoint x="570" y="330" as="targetPoint" />
          </mxGeometry>
        </mxCell>
        <mxCell id="7a-uF8XU-NLAj2xIB6lD-68" value="" style="endArrow=none;html=1;rounded=0;entryX=0;entryY=0.5;entryDx=0;entryDy=0;" parent="1" target="7a-uF8XU-NLAj2xIB6lD-60" edge="1">
          <mxGeometry width="50" height="50" relative="1" as="geometry">
            <mxPoint x="200" y="360" as="sourcePoint" />
            <mxPoint x="320" y="340" as="targetPoint" />
          </mxGeometry>
        </mxCell>
        <mxCell id="7a-uF8XU-NLAj2xIB6lD-71" value="" style="endArrow=none;html=1;rounded=0;exitX=1;exitY=0.75;exitDx=0;exitDy=0;exitPerimeter=0;entryX=0;entryY=0.5;entryDx=0;entryDy=0;" parent="1" source="_HQgu8TvVa0ZUjis0PXV-1" target="7a-uF8XU-NLAj2xIB6lD-61" edge="1">
          <mxGeometry width="50" height="50" relative="1" as="geometry">
            <mxPoint x="520" y="380" as="sourcePoint" />
            <mxPoint x="570" y="330" as="targetPoint" />
          </mxGeometry>
        </mxCell>
        <mxCell id="7a-uF8XU-NLAj2xIB6lD-72" value="VCC" style="text;html=1;align=center;verticalAlign=middle;resizable=0;points=[];autosize=1;strokeColor=none;fillColor=none;" parent="1" vertex="1">
          <mxGeometry x="310" y="210" width="50" height="30" as="geometry" />
        </mxCell>
        <mxCell id="7a-uF8XU-NLAj2xIB6lD-73" value="A3 (P21)" style="text;html=1;align=center;verticalAlign=middle;resizable=0;points=[];autosize=1;strokeColor=none;fillColor=none;" parent="1" vertex="1">
          <mxGeometry x="300" y="330.5" width="70" height="30" as="geometry" />
        </mxCell>
        <mxCell id="acZnFunq9MbQZiUY-Ej0-1" value="" style="endArrow=none;html=1;rounded=0;entryX=1;entryY=0.54;entryDx=0;entryDy=0;entryPerimeter=0;" edge="1" parent="1" target="7a-uF8XU-NLAj2xIB6lD-47">
          <mxGeometry width="50" height="50" relative="1" as="geometry">
            <mxPoint x="465" y="680" as="sourcePoint" />
            <mxPoint x="408" y="608" as="targetPoint" />
          </mxGeometry>
        </mxCell>
        <mxCell id="acZnFunq9MbQZiUY-Ej0-2" value="" style="endArrow=none;html=1;rounded=0;entryX=1;entryY=0.54;entryDx=0;entryDy=0;entryPerimeter=0;" edge="1" parent="1" target="7a-uF8XU-NLAj2xIB6lD-8">
          <mxGeometry width="50" height="50" relative="1" as="geometry">
            <mxPoint x="530" y="680" as="sourcePoint" />
            <mxPoint x="529" y="600" as="targetPoint" />
          </mxGeometry>
        </mxCell>
      </root>
    </mxGraphModel>
  </diagram>
</mxfile>
